<svg xmlns="http://www.w3.org/2000/svg" width="162" height="32"><path fill-rule="evenodd" d="M65.824 31v-7.865h5.962v1.606h-4.015v1.408h3.443v1.518h-3.443v1.683h4.081V31h-6.028zm-4.158.176c-2.31 0-3.883-1.727-3.883-4.081 0-2.343 1.529-4.114 3.872-4.114.913 0 1.683.264 2.244.693.682.517 1.078 1.287 1.177 2.167h-1.947c-.099-.704-.649-1.243-1.485-1.243-1.276 0-1.881 1.067-1.881 2.497 0 1.441.726 2.486 1.892 2.486.869 0 1.441-.55 1.529-1.309h1.947a3.1 3.1 0 0 1-.946 2.013c-.605.583-1.408.891-2.519.891zM55.077 31v-7.865h1.947V31h-1.947zm-5.137 0l-2.596-7.865h2.024L50.6 27.26c.176.594.363 1.386.363 1.386h.022s.198-.803.363-1.386l1.221-4.125h1.969L51.953 31H49.94zm-8.899 0v-2.904l-2.662-4.961h2.123l1.012 2.035c.264.539.517 1.199.517 1.199h.022s.275-.66.539-1.199l1.001-2.035h2.057l-2.662 4.961V31h-1.947zm-9.515 0v-7.865h3.795c.814 0 1.419.198 1.837.539.451.374.682.88.682 1.507 0 .781-.407 1.276-1.1 1.54v.033c.858.264 1.408.99 1.408 1.925 0 .792-.286 1.364-.803 1.76-.462.363-1.111.561-1.936.561h-3.883zm1.925-1.562h1.738c.638 0 1.034-.363 1.034-.924 0-.627-.462-.946-1.056-.946h-1.716v1.87zm0-3.19h1.584c.561 0 .946-.275.946-.792 0-.495-.363-.781-.935-.781h-1.595v1.573zM22.088 31v-7.865h1.947v2.981h2.761v-2.981h1.947V31h-1.947v-3.278h-2.761V31h-1.947zm-4.158.176c-2.31 0-3.883-1.727-3.883-4.081 0-2.343 1.529-4.114 3.872-4.114.913 0 1.683.264 2.244.693.682.517 1.078 1.287 1.177 2.167h-1.947c-.099-.704-.649-1.243-1.485-1.243-1.276 0-1.881 1.067-1.881 2.497 0 1.441.726 2.486 1.892 2.486.869 0 1.441-.55 1.529-1.309h1.947a3.1 3.1 0 0 1-.946 2.013c-.605.583-1.408.891-2.519.891zM7.458 31v-7.865h5.962v1.606H9.405v1.408h3.443v1.518H9.405v1.683h4.081V31H7.458zm-4.983 0v-6.215H.187v-1.65h6.545v1.65h-2.31V31H2.475zM152.903.247c5.15 0 9.097 2.282 9.097 7.98 0 4.606-3.215 7.526-7.713 7.526h-13.289l-2.442-4.977h-.101v4.977H127.77l-.508-1.933h-4.213l-.447 1.933h-5.903l1.3-3.781c-1.416 2.572-4.257 4.028-7.526 4.028-3.766 0-6.963-1.931-8.07-5.277.042.239.065.488.065.753 0 3.187-2.93 4.277-5.617 4.277H83.115l-2.442-4.977h-.102v4.977h-5.454V.247h6.736c3.46 0 6.39 1.48 6.39 5.388 0 2.344-.895 3.332-2.97 4.031v.123c.284.226.63.473.936.926l3.052 4.608V.247h6.491c2.972 0 6.004.72 6.004 4.298 0 1.357-.672 2.694-2.015 3.126v.123c1.18.422 2.052 1.163 2.463 2.214a8.775 8.775 0 0 1-.217-1.967c0-4.874 3.826-8.041 8.486-8.041s8.487 3.167 8.487 8.041a8.97 8.97 0 0 1-.125 1.502L122.03.247h6.167L133 13.848V.247h6.736c3.46 0 6.39 1.48 6.39 5.388 0 2.344-.895 3.332-2.97 4.031v.123c.284.226.63.473.936.926l3.133 4.73V.247h5.678zm.244 10.858c1.852 0 3.276-.863 3.276-2.9 0-2.18-1.24-3.105-3.276-3.105h-.346v6.005h.346zm-14.306-3.99c.916 0 1.832-.143 1.832-1.295 0-1.193-.834-1.337-1.791-1.337h-.427v2.633h.386zm-14.795 3.024h2.239l-.651-2.735c-.163-.659-.265-1.337-.367-1.995h-.203l-1.018 4.73zm-13.573.966c1.69 0 2.87-1.213 2.87-2.981 0-1.646-1.1-3.024-2.87-3.024s-2.87 1.378-2.87 3.024c0 1.768 1.181 2.981 2.87 2.981zm-15.412.946c.915 0 2.238-.02 2.238-1.295 0-1.296-1.424-1.275-2.32-1.275h-.55v2.57h.632zM94.43 3.99v2.22h.508c.814 0 1.73-.082 1.73-1.15 0-1.153-1.038-1.07-1.851-1.07h-.387zM80.958 7.116c.916 0 1.831-.144 1.831-1.296 0-1.193-.834-1.337-1.79-1.337h-.428v2.633h.387zM69.01 9.98v1.51h4.9v4.205H63.352V.305h10.395V4.51H69.01v1.47h4.325v4H69.01zM56.616 5.47V.247h5.378v15.506h-5.378v-5.388h-3.423v5.388h-5.379V5.278l-3.116-.137v10.612h-5.582V5.141l-2.942.138c.295.842.457 1.765.457 2.762 0 4.977-3.81 7.959-8.496 7.959-3.913 0-7.214-2.081-8.196-5.666l.883 5.42h-5.4L14.67 7.26h-.102c-.102.514-.204 1.049-.367 1.542l-2.22 6.951H8.72l-1.997-6.56c-.163-.658-.305-1.275-.346-1.933h-.183c-.041.617-.082 1.254-.143 1.871l-.652 6.622H0L2.486.247H8.23l2.12 8.143h.142c.102-.68.204-1.399.387-2.057L12.611.247h5.684l1.364 8.369a9.243 9.243 0 0 1-.02-.575C19.64 3.167 23.47 0 28.136 0c3.575 0 6.658 1.861 7.904 4.923V.247h17.154V5.47h3.423zm-28.48 5.635c1.69 0 2.872-1.213 2.872-2.981 0-1.646-1.1-3.024-2.873-3.024-1.772 0-2.872 1.378-2.872 3.024 0 1.768 1.182 2.981 2.872 2.981z"/></svg>