<svg xmlns="http://www.w3.org/2000/svg" width="113" height="22"><path d="M100.296 14.474h4.37v.851c0 1.6.678 2.656 2 2.656 1.15 0 1.76-.647 1.76-1.839 0-1.226-.778-1.702-2.066-2.418l-1.795-.987c-2.27-1.26-4.235-2.793-4.235-6.47 0-3.815 2.473-6.267 6.132-6.267 3.896 0 6.131 2.248 6.131 6.64v.852h-4.37v-.885c0-1.737-.542-2.588-1.761-2.588-1.05 0-1.592.749-1.592 1.907 0 1.09.61 1.77 1.626 2.315l1.998 1.09C111.306 10.864 113 12.362 113 15.7c0 4.154-2.54 6.3-6.335 6.3-3.794 0-6.369-2.111-6.369-6.709v-.817zm-6.39-3.202l1.693-11h4.54l-3.693 21.456H91.77l-1.558-10.49h-.136l-1.558 10.49h-4.675L80.15.272h4.743l1.694 11h.135l1.694-11h3.659l1.694 11h.135zM79.1 17.607v4.12H68.295V.273H79.1v4.121h-5.928v4.393h4.404v4.087h-4.404v4.734H79.1zm-17.186-7.458V.272h4.607v21.456h-3.76l-4.913-11.069h-.135v11.069h-4.607V.272h4.54l4.132 9.877h.136zm-14.16 7.458v4.12H36.947V.273h10.806v4.121h-5.928v4.393h4.404v4.087h-4.404v4.734h5.928zM27.281 7.186v7.628c0 1.907.237 3.133 1.694 3.133 1.456 0 1.693-1.226 1.693-3.133v-2.316h4.845v.988c0 5.006-1.593 8.514-6.437 8.514-4.98 0-6.91-3.372-6.91-9.536V9.536c0-6.164 1.93-9.536 6.91-9.536 4.844 0 6.437 3.508 6.437 8.514v.988h-4.845V7.186c0-1.907-.237-3.133-1.693-3.133-1.457 0-1.694 1.226-1.694 3.133zM15.752.272h4.98v21.456h-4.98V.272zM9.96 21.728H4.709L0 .272h5.115L7.521 12.67h.135L10.061.272h4.607L9.96 21.728z"/></svg>