<svg
    width="218"
    height="24"
    viewBox="0 0 218 24"
    fill="none"
    xmlns="http://www.w3.org/2000/svg"
  >
    <path
      fill-rule="evenodd"
      clip-rule="evenodd"
      d="M56.4925 17.5043C58.2836 16.1718 59.1035 14.2235 59.5639 11.8142L51.4249 11.8209C50.8368 14.025 49.4792 14.9739 47.2025 14.9739C44.5662 14.9739 42.7482 13.5135 42.7482 9.79694C42.7482 6.08039 44.6166 4.62002 47.5604 4.62002C50.3496 4.62002 51.2199 6.50942 51.4249 7.81669H59.5639C58.6163 0.563623 51.9105 0 47.5604 0C43.1817 0 35.0696 0.307887 35.0696 9.79021C35.0696 19.2725 43.1649 19.5804 47.5604 19.5804C51.9559 19.5804 54.7013 18.8368 56.4925 17.5043ZM0 0.647746H8.1222L12.6336 12.5764L12.689 12.3778L17.2004 0.647746H25.321L16.53 18.9394H8.80101L0 0.647746ZM26.7727 0.647746H33.6045V18.9394H26.7727V0.647746ZM61.0005 0.647746H80.4256V5.10625H68.2171V7.36243H79.3586V11.8226H68.2171V14.4792H80.4256V18.9394H61.0005V0.647746ZM167.955 18.0864V6.12821H165.089L164.702 8.94782C164.188 7.06706 163.035 5.59476 160.602 5.59476C157.275 5.59476 154.815 8.28331 154.815 12.3466C154.815 16.4099 157.272 19.1015 160.602 19.1015C162.857 19.1015 164.01 17.8304 164.572 16.1569V17.1933C164.572 20.6226 163.342 21.156 161.347 21.156H156.556V24H161.783C166.19 24 167.931 22.1985 167.955 18.0864ZM161.888 8.3839C163.884 8.3839 165.012 9.96288 165.012 12.3466C165.012 14.7334 163.884 16.3093 161.888 16.3093C159.634 16.3093 158.25 14.7334 158.25 12.3466C158.25 9.95984 159.634 8.3839 161.888 8.3839ZM177.128 8.97221V6.12821C177.093 6.12518 177.057 6.12211 177.022 6.11905C176.773 6.09744 176.531 6.07639 176.307 6.07639C173.232 6.07639 172.977 8.25892 172.925 9.60624V9.88668L172.516 6.12821H169.65V18.8211H173.032V12.2978C173.032 10.6975 173.826 8.97221 175.821 8.97221H177.128ZM183.712 19.1015C187.553 19.1015 190.268 16.4099 190.268 12.3466H190.265C190.265 8.28636 187.556 5.59476 183.712 5.59476C179.868 5.59476 177.153 8.28331 177.153 12.3466C177.153 16.4099 179.871 19.1015 183.712 19.1015ZM183.712 8.3839C185.708 8.3839 186.837 9.96288 186.837 12.3466H186.833C186.833 14.7334 185.711 16.3093 183.712 16.3093C181.713 16.3093 180.585 14.7334 180.585 12.3466C180.585 9.95984 181.716 8.3839 183.712 8.3839ZM203.685 18.8211V6.12821H200.306V14.1755C200.306 15.343 199.592 16.5379 197.516 16.5379C195.441 16.5379 194.826 15.343 194.826 14.1755V6.12821H191.443V14.6328C191.443 17.7816 192.978 19.3301 195.976 19.3301C199.048 19.3301 200.407 17.1445 200.407 15.6478L200.379 15.4436L201.071 18.8211H203.685ZM212.726 19.1015C215.798 19.1015 218 16.4099 218 12.3466C218 8.28636 215.798 5.59477 212.726 5.59172C210.294 5.59172 209.141 7.06706 208.627 8.94477L208.243 6.12821H205.373V23.9482H208.756V16.1569C209.319 17.8304 210.472 19.1015 212.726 19.1015ZM211.444 8.3839C213.443 8.3839 214.568 9.96288 214.568 12.3466C214.568 14.7334 213.44 16.3093 211.444 16.3093C209.448 16.3093 208.319 14.7334 208.319 12.3466C208.319 9.95984 209.445 8.3839 211.444 8.3839ZM104.512 18.8485V10.3439C104.512 7.19814 103.359 5.64658 100.357 5.64658C97.5159 5.64658 96.4642 7.52735 96.3381 8.99964C96.0029 6.7409 94.8005 5.64658 92.2666 5.64658C89.2683 5.64658 88.2689 7.72853 88.2197 9.22826L87.8076 6.15564H84.9416V18.8485H88.3243V10.8011C88.3243 9.63368 88.6595 8.44182 90.7321 8.44182C92.8048 8.44182 93.0354 9.63368 93.0354 10.8011V18.8485H96.4181V10.8011C96.4181 9.63368 96.7532 8.44182 98.8259 8.44182C100.899 8.44182 101.129 9.63368 101.129 10.8011V18.8485H104.512ZM109.02 13.1117H118.75V12.3771C118.75 8.31379 116.164 5.6222 112.323 5.6222C108.482 5.6222 105.637 8.31684 105.637 12.3771C105.637 16.4373 108.224 19.1289 112.246 19.1289C115.908 19.1289 117.956 17.556 118.547 14.6846H114.832C114.577 15.5229 114.192 16.3367 112.194 16.3367C110.401 16.3367 109.248 15.0931 109.02 13.1117ZM115.293 10.9292H109.121C109.53 9.25265 110.684 8.41438 112.27 8.41438C114.063 8.41438 114.986 9.25265 115.293 10.9292ZM132.4 18.8485V0.824278H129.018V8.56679C128.455 6.89331 127.302 5.6222 125.048 5.6222C121.976 5.6222 119.774 8.31684 119.774 12.3771C119.774 16.4373 121.973 19.1289 125.048 19.1289C127.455 19.1289 128.584 17.6841 129.122 15.8551L129.531 18.8485H132.4ZM129.464 12.0204V12.3771C129.464 14.7608 128.338 16.3398 126.339 16.3398C124.34 16.3398 123.215 14.7639 123.215 12.3771C123.215 9.99032 124.34 8.41438 126.339 8.41438C127.901 8.41438 128.925 9.38067 129.31 10.9292L129.464 12.0204ZM137.127 6.15564H133.744V18.8485H137.127V6.15564ZM150.212 18.8485V10.3439H150.202C150.202 7.07011 147.847 5.64658 144.326 5.64658C140.509 5.64658 138.381 7.49991 138.381 10.2951H141.764C141.764 9.30447 142.61 8.44182 144.35 8.44182C146.091 8.44182 146.832 9.30447 146.832 10.8011V11.1822H143.274C140.35 11.1822 138.354 12.7307 138.354 15.0656C138.354 17.681 140.35 18.9765 142.757 18.9765C144.805 18.9765 146.343 17.9096 146.829 15.5991L147.598 18.8485H150.212ZM143.917 13.3647H146.82C146.831 13.7654 146.761 14.1643 146.614 14.5377C146.467 14.911 146.245 15.2512 145.963 15.5379C145.68 15.8246 145.342 16.052 144.969 16.2065C144.596 16.361 144.195 16.4395 143.791 16.4373C142.124 16.4373 141.715 15.5991 141.715 14.8126C141.715 14.0262 142.355 13.3647 143.917 13.3647ZM136.851 1.45117C137.039 1.72938 137.139 2.05647 137.139 2.39107H137.13C137.13 2.83818 136.951 3.2671 136.633 3.58411C136.315 3.90112 135.883 4.08042 135.432 4.08284C135.095 4.08284 134.765 3.98362 134.484 3.79773C134.204 3.61183 133.985 3.34761 133.856 3.03848C133.726 2.72935 133.693 2.38919 133.758 2.06102C133.824 1.73285 133.987 1.43141 134.226 1.19481C134.464 0.95821 134.768 0.797086 135.099 0.731808C135.431 0.666531 135.774 0.700034 136.086 0.82808C136.397 0.956126 136.664 1.17296 136.851 1.45117Z"
      fill="white"
    />
  </svg>